<?xml version="1.0" encoding="utf-8"?>
<!-- Generator: Adobe Illustrator 23.0.1, SVG Export Plug-In . SVG Version: 6.00 Build 0)  -->
<svg version="1.1" id="Layer_1" xmlns="http://www.w3.org/2000/svg" xmlns:xlink="http://www.w3.org/1999/xlink" x="0px" y="0px"
	 viewBox="0 0 901.71 597.46" style="enable-background:new 0 0 901.71 597.46;" xml:space="preserve">
<style type="text/css">
	.st0{fill:#FFFFFF;}
</style>
<g>
	<path class="st0" d="M110.74,173.24v22.5h29.34V1.28h-29.57v73.29C100.42,59.84,85,52.18,65.17,52.18C33.74,52.18,0,75.14,0,125.59
		c0,35.83,19.48,72.01,62.97,72.01C82.68,197.6,99.84,188.67,110.74,173.24z M30.03,125.12c0-28.99,16-47.66,40.7-47.66
		c26.09,0,41.63,17.63,41.63,47.2c0,22.84-10.9,47.2-41.63,47.2C45.22,171.85,30.03,154.46,30.03,125.12z"/>
	<rect x="162.23" y="54.15" class="st0" width="29.57" height="141.59"/>
	<path class="st0" d="M177.42,38.27c11.48,0,19.25-7.65,19.25-19.02C196.67,7.89,188.78,0,177.42,0c-11.48,0-19.25,7.77-19.25,19.25
		C158.17,30.85,165.71,38.27,177.42,38.27z"/>
	<path class="st0" d="M245.49,125.82c0-29.22,11.48-46.73,30.5-46.73c9.04,0,16.12,1.97,22.5,6.26l3.25,2.2l9.62-27.02l-2.09-1.28
		c-4.99-3.25-13.8-6.96-27.25-6.96c-16.81,0-29.11,7.42-36.88,22.15V54.15H215.8v141.59h29.57L245.49,125.82z"/>
	<path class="st0" d="M381.05,198.06c16,0,28.99-3.36,38.85-9.97c10.2-6.61,17.86-14.15,23.42-22.96l1.74-2.78l-25.05-14.15
		l-1.51,2.67c-8.47,14.61-20.41,21.45-37.69,21.45c-24.93,0-40.12-13.57-43.02-38.38h109v-10.32c0-43.83-26.09-72.24-66.45-72.24
		c-41.63,0-71.78,31.31-71.78,74.45C308.69,170.46,336.4,198.06,381.05,198.06z M380.35,77c21.45,0,34.9,12.99,37.11,35.95h-78.97
		C342.31,90.33,357.74,77,380.35,77z"/>
	<path class="st0" d="M530.05,198.06c34.32,0,58.21-18.44,67.49-52.07l0.81-3.13l-29.8-6.96l-0.7,3.02
		c-5.22,22.73-16.81,32.93-37.92,32.93c-35.6,0-40.93-29.45-40.93-46.96c0-29.45,15.77-47.66,41.17-47.66
		c20.64,0,33.05,11.36,36.88,33.74l0.58,3.13l30.03-6.38l-0.7-3.02c-5.45-24.24-21.45-53.11-66.33-53.11
		c-42.09,0-71.43,30.15-71.43,73.4C459.2,169.42,487.03,198.06,530.05,198.06z"/>
	<path class="st0" d="M630.94,151.21c0,32.01,13.22,46.85,41.75,46.85c9.04,0,17.39-1.74,24.12-4.87l1.74-0.81v-25.4l-4.17,1.51
		c-5.91,2.2-10.32,3.48-16.58,3.48c-11.36,0-18.44-3.94-18.44-23.31v-69h39.19V54.15h-39.19V0.93l-28.18,17.05v36.18h-31.19v25.51
		h30.96v71.54H630.94z"/>
	<rect x="714.08" y="1.28" class="st0" width="29.57" height="194.35"/>
	<polygon class="st0" points="786.1,247.92 817.29,247.92 901.71,54.15 870.75,54.15 832.48,146.11 827.96,158.87 823.67,146.23 
		785.17,54.15 754.32,54.15 812.19,189.94 	"/>
	<path class="st0" d="M389.28,415.6v-95.44c0-30.5-20.99-48.82-56.01-48.82c-30.96,0-54.62,15.31-66.68,43.14l-1.28,3.01l26.9,9.28
		l1.04-2.67c7.65-19.25,19.6-27.83,38.73-27.83c18.21,0,28.64,6.96,28.64,18.9c0,9.39-8.35,12.76-35.25,18.79
		c-21.92,4.52-33.51,8.23-42.79,13.68c-13.45,8-19.6,18.79-19.6,33.86c0,22.84,17.05,36.41,45.57,36.41
		c21.92,0,41.17-10.67,52.3-27.95v25.51L389.28,415.6z M316.8,393.92c-8.93,0-24-2.09-24-16c0-14.03,11.71-19.13,36.3-24.58
		c14.96-3.36,25.86-6.61,32.7-11.48v4.41C361.91,374.78,338.6,393.92,316.8,393.92z"/>
	<path class="st0" d="M406.21,273.9v0.12V465.7h29.57v-71.66c10.55,15.19,26.9,23.42,46.96,23.42c31.66,0,63.55-22.73,63.55-73.63
		c0-53.11-33.28-72.01-61.81-72.01c-20.06,0-37.57,9.04-48.7,24.7V273.9H406.21z M475.79,297.32c25.51,0,40.7,17.51,40.7,46.96
		c0,29.69-14.96,47.43-40.01,47.43c-26.67,0-42.67-17.51-42.67-46.96C433.81,315.99,450.27,297.32,475.79,297.32z"/>
	<path class="st0" d="M559.62,273.9v0.12V465.7h29.57v-71.66c10.55,15.19,26.9,23.42,46.96,23.42c31.66,0,63.55-22.73,63.55-73.63
		c0-53.11-33.28-72.01-61.81-72.01c-20.06,0-37.57,9.04-48.7,24.7V273.9H559.62z M629.2,297.32c25.51,0,40.7,17.51,40.7,46.96
		c0,29.69-14.96,47.43-40.01,47.43c-26.67,0-42.67-17.51-42.67-46.96C587.34,315.99,603.81,297.32,629.2,297.32z"/>
	<rect x="713.39" y="221.14" class="st0" width="29.57" height="194.35"/>
	<polygon class="st0" points="831.55,365.97 827.03,378.73 822.74,366.09 784.24,274.01 753.39,274.01 811.26,409.8 787.37,464.65 
		818.45,464.65 900.78,274.01 869.93,274.01 	"/>
	<path class="st0" d="M744.13,447.64l0.27-0.52l-0.67-0.13l0.22-0.65v-0.08c-0.02-0.43-0.02-0.82-0.02-1.17c0-1.45,0-2.5-1.77-3.16
		c-1.46-0.52-4.08,0.04-6.39,0.54c-1,0.21-1.94,0.41-2.61,0.48c-6.13,0.59-12.08,1.04-18.19,1.39c-11.37,0.55-23.08,0.4-35.78-0.46
		c-0.53-0.04-1.12-0.1-1.73-0.16c-3.02-0.29-6.78-0.66-9.4,0.55c-2.05,1.03-2.38,2.68-2.76,4.59l-0.14,0.69
		c-0.25,1.18-0.57,2.37-0.91,3.65c-0.72,2.67-1.45,5.43-1.53,8.07c-0.16,0-0.29,0-0.3,0.01l-1.9-1.92l1.2,2.42
		c0.19,0.39,0.88,0.52,1.43,0.52l0,0v0.19c0.24,0,0.47,0.04,0.68,0.07c0.36,0.05,0.75,0.11,1.08-0.02c0.11,0.39,0.5,0.49,0.85,0.53
		l0.07,0.01l0.07-0.01c0.17-0.04,0.38-0.1,0.6-0.17c0.34-0.11,0.75-0.24,1.09-0.24v0.08l0.32,0.09c0.99,0.26,1.76,0.06,2.43-0.12
		c0.41-0.11,0.78-0.21,1.19-0.21c0.01,0,0.01,0,0.02,0l0.49,0.2c0.35,0.14,0.78,0.12,1.23,0.11c0.46-0.02,0.98-0.03,1.4,0.11
		c0.02,0.01,0.04,0.01,0.06,0.02l0.16-0.45h0.01c0.55,0.11,1.02,0.12,1.44,0.13c0.5,0.01,0.94,0.02,1.39,0.19l0.19,0.07l0.88-0.5
		c2.53,0.06,8.96-0.15,14.64-0.33c3.42-0.11,6.67-0.21,8.66-0.24l-0.15,0.15l1.11-0.04c1.7-0.06,3.96-0.09,6.36-0.12l2.29-0.03
		c0,0.01,0,0.01,0.01,0.02c-1.7,1.91-3.72,4.16-5.73,5.99c-1.84,1.73-2.06,1.75-2.18,1.76c-0.4,0.04-0.69,0.07-3.27,2.52
		c-11.75,10.9-24.83,21.47-39.96,32.32c-13.44,9.52-27.87,18.49-42.83,26.65l-0.15-0.24c-0.82,0.45-1.63,0.91-2.43,1.35
		c-1.45,0.81-2.87,1.61-4.29,2.35c-2.16,1.14-4.39,2.31-6.59,3.36c-1.77,0.84-3.49,1.69-5.21,2.54c-2.52,1.25-5.13,2.54-7.74,3.7
		c-2.58,0.94-3.23,1.03-3.97,1.14l0.03,0.41l-0.19-0.31c-0.06,0.03-0.19,0.09-0.37,0.17c-0.29,0.13-0.72,0.32-1.21,0.57
		c-0.57,0.26-1.23,0.54-2,0.87c-0.95,0.4-2.05,0.87-3.32,1.45l-1.34,0.57c-1.93,0.82-4.11,1.74-6.54,2.67l-0.68,0.27
		c-2.75,1.1-5.59,2.24-8.58,3.2c-5.83,2.12-11.77,4.05-16.55,5.6l-1.31,0.43c-3.92,1.39-6.77,2.27-8.15,2.69
		c-0.76,0.24-0.97,0.3-1.07,0.35l-0.12,0.06l-0.44,0.77c-4.84,1.28-5.59,1.3-6.22,1.3c-0.01,0-0.03,0-0.04,0
		c-0.7,0.01-1.38,0-6.06,1.24c-1.49,0.79-4.87,1.71-9.27,2.51c-3.71,0.67-7.54,1.37-9.25,1.96c-0.23,0.01-0.62,0.06-1.29,0.15
		c-0.6,0.08-1.54,0.21-2.18,0.27l0.73-1.1l-1.74,1.11c-0.79,0.5-2.63,0.78-4.59,1.08c-0.97,0.15-1.97,0.3-2.97,0.5
		c-0.25,0.08-0.61,0.2-0.61,0.54l-4.39,0.83c-0.14,0.01-0.28,0.02-0.41,0.03l-0.07-0.5c-0.68,0.08-1.51,0.2-2.45,0.34
		c-0.51,0.08-1.05,0.16-1.62,0.24c-0.97,0.14-2.01,0.24-3.11,0.34c-0.73,0.07-1.5,0.14-2.34,0.24c-3.36,0.48-7.16,0.8-11.55,1.16
		l-2.68,0.23c-8.68,0.65-22.06,1.4-36.58,1.27c-3.16-0.11-6.44-0.23-9.54-0.23c-0.81,0-1.58-0.03-2.36-0.06
		c-0.79-0.03-1.58-0.06-2.39-0.06c-1.08,0-2.12-0.11-3.13-0.21c-0.49-0.05-0.99-0.1-1.48-0.14c-3.13-0.23-6.14-0.46-9.04-0.7
		c-1.36-0.1-2.62-0.21-3.88-0.31l-0.37-0.03c-0.7-0.12-1.4-0.2-2.11-0.29c-0.69-0.09-1.38-0.17-2.08-0.29l-1.04-0.14
		c-2.32-0.3-4.5-0.59-6.6-0.79c-0.97-0.14-1.9-0.26-2.8-0.37c-1.37-0.18-2.66-0.34-3.91-0.55l-0.45-0.08
		c-3.79-0.65-7.07-1.21-9.42-1.55l-0.18,0.72c-0.38-0.14-0.82-0.27-1.33-0.42l-0.21-0.06c-0.79-0.16-1.7-0.37-2.67-0.6l-1.37-0.32
		c-3-0.72-6-1.51-7.67-2.4l-0.13-0.07l-1.53,0.24l-2.29-0.91c-2.57-0.45-4.62-1.01-6.33-1.5c-1.15-0.33-2.08-0.55-2.84-0.72
		c-0.32-0.07-0.62-0.14-0.88-0.21c-1.28-0.34-1.93-0.49-2.37-0.6l-0.42-0.1c-0.34-0.08-0.62-0.17-1.37-0.4l-0.92-0.28
		c-0.3-0.1-0.65-0.2-1.07-0.31c-0.57-0.16-1.26-0.35-2.11-0.63c-1.38-0.46-3.11-1.04-5.39-1.84c-2.59-0.9-5-1.6-7.19-2.2
		c-0.85-0.29-1.72-0.5-2.48-0.68l-0.57-0.14c-0.78-0.19-1.65-0.5-2.63-0.92l-0.73-0.25c-2.86-0.99-5.33-1.84-7.84-2.92l-0.13,0.3
		c-0.38-0.29-1.2-0.59-2.94-1.2l-0.99-0.34c-2.01-0.71-3.89-1.61-4.39-2.02l-1-0.45c-6.84-2.99-8.16-3.43-8.55-3.23
		c-0.15-0.08-0.3-0.17-0.47-0.26c-0.81-0.46-2.05-1.15-2.97-1.68l0.16-0.33c-0.88-0.44-1.74-0.88-2.56-1.31
		c-1.52-0.79-2.97-1.53-4.19-2.07l-0.08,0.16c-2.84-1.41-5.06-2.57-7.06-3.74c-3.21-1.87-5.65-3.16-8.16-4.31l-0.15,0.27
		c-0.63-0.35-1.23-0.7-1.81-1.02l-1-0.57l0.33-0.64c-1.35-0.75-2.55-1.49-3.71-2.22c-0.63-0.39-1.24-0.77-1.85-1.14
		c-1.72-1.03-3.2-1.95-4.75-2.9c-1.48-0.91-3.01-1.85-4.52-2.67c-0.46-0.28-0.92-0.57-1.38-0.87c-1.07-0.68-2.17-1.39-3.4-2.04
		l-0.1,0.16c-2.11-1.32-5.15-3.3-9.49-6.16c-2.41-1.67-5.21-3.68-8.58-6.15c-0.87-0.6-1.74-1.24-2.63-1.89
		c-0.65-0.48-1.32-0.97-2-1.45c-0.75-0.58-1.5-1.18-2.25-1.79c-0.76-0.61-1.51-1.22-2.26-1.8c-3.02-2.43-6.03-4.87-8.92-7.18
		c-2.78-2.44-5.45-4.76-7.89-6.85c-2.88-2.4-5.28-4.61-7.21-6.38c-0.89-0.82-1.66-1.53-2.3-2.09l0.31-0.25
		c-0.07-0.1-0.17-0.2-0.29-0.3l-6.48-6.48c-0.94-1.01-1.94-2.09-3-3.23c-2.09-2.25-4.4-4.74-6.86-7.43l-2.78-3.13
		c-0.42-0.48-0.85-0.98-1.28-1.49c-0.52-0.61-1.05-1.24-1.61-1.87l-0.18-0.21c-1.91-2.25-3.83-4.5-5.84-6.85l-5.92-7.66
		c-0.83-1.01-1.58-2.03-2.39-3.1l-0.6-0.81c-0.24-0.36-0.51-0.69-0.78-1.02c-0.25-0.31-0.5-0.61-0.73-0.96l-1.39-1.97
		c-0.93-1.34-1.89-2.67-2.84-4.01c-0.96-1.33-1.91-2.66-2.84-4c-1.47-2.03-3.04-4.11-4.71-6.31c-11.98-15.84-28.4-37.53-51.04-96.22
		c-1.35-3.49-2.57-7.05-3.64-10.6c-4.52-15.01-9.77-34.79-10.22-54.66c-0.02-0.48,0-1.16,0.01-1.96c0.08-3.57,0.19-8.96-1.97-10.83
		c-0.65-0.56-1.45-0.77-2.37-0.61c-4.42,0.74-5.7,2.19-5.7,6.46c0,4.34,0,8.82,0.12,13.11c0.11,4.28,1.01,17.01,2.29,24.2l-0.1-0.1
		l0.25,1.37c1.05,5.7,2.11,9.95,3.14,14.07c0.52,1.83,1.4,5.31,2.34,9c1.11,4.37,2.25,8.89,2.77,10.49c0.5,1.63,1.11,3.27,1.75,5.01
		c0.56,1.52,1.14,3.09,1.72,4.82c0.28,1.12,1.95,6.15,3.42,10.59c1,3.01,1.94,5.86,2.3,7.01c0.41,0.81,0.78,1.62,1.16,2.43
		c0.38,0.81,0.75,1.62,1.15,2.41c0.62,1.52,1.35,3.28,2.17,5.27c0.88,2.12,1.86,4.5,2.94,7.15c0.36,0.79,0.67,1.58,1,2.4
		c0.2,0.5,0.4,1.01,0.62,1.53c0.59,1.42,1.3,2.83,1.98,4.19c0.66,1.37,1.31,2.76,1.98,4.18c0.75,1.59,1.51,3.21,2.3,4.85
		c0.75,1.76,1.58,3.38,2.45,4.78c0.32,0.65,0.66,1.29,1.01,1.94c0.52,0.98,1.05,1.99,1.55,3.06c0.55,0.97,1.05,1.96,1.59,3.01
		c0.35,0.69,0.7,1.39,1.08,2.09c0.23,0.4,0.46,0.84,0.69,1.27c0.23,0.44,0.47,0.87,0.7,1.28c0.23,0.41,0.5,0.84,0.76,1.28
		c0.26,0.43,0.52,0.86,0.75,1.26c1.98,3.5,4.1,7.03,6.15,10.45c1.03,1.71,2.09,3.49,3.26,5.24c0.58,0.87,1.13,1.73,1.68,2.6
		s1.11,1.74,1.69,2.62c0.58,0.87,1.13,1.73,1.68,2.6s1.11,1.75,1.69,2.62s1.16,1.71,1.74,2.56c0.58,0.84,1.16,1.68,1.74,2.55
		c1.07,1.56,2.17,3.09,3.26,4.61c1.24,1.72,2.51,3.5,3.69,5.25l0.08,0.1c2.37,3.05,4.83,6.21,7.12,9.08
		c1.14,1.49,2.32,3.02,3.49,4.42c1.14,1.36,2.31,2.78,3.49,4.07c1.34,1.54,2.61,3.05,3.84,4.52c0.9,1.06,1.77,2.11,2.64,3.13
		c0.51,0.63,1.02,1.2,1.52,1.75c0.52,0.57,1.02,1.13,1.52,1.76c1.05,1.05,1.98,2.1,2.89,3.12c3.45,3.78,6.27,6.8,8.53,9.02
		l-0.04,0.05c0.93,0.87,1.85,1.79,2.81,2.75c0.96,0.96,1.95,1.95,2.98,2.93l4.79,4.79c0.56,0.45,1.14,1.03,1.72,1.61
		c2.32,2.09,4.75,4.29,7.3,6.61l3.84,3.49c0.7,0.58,1.36,1.13,2.03,1.68s1.33,1.1,2.03,1.68c2.74,2.28,5.57,4.64,8.47,6.96
		c2.53,2.03,5.12,3.94,7.86,5.96l1.19,0.88c1.48,1.14,3.01,2.32,4.64,3.48c0.96,0.74,1.93,1.41,2.97,2.12
		c0.6,0.41,1.2,0.82,1.81,1.26l0.14,0.09c3.15,2.13,6.4,4.34,9.5,6.52c3.53,2.27,6.89,4.34,9.97,6.15c1.51,0.97,3.24,2.02,5.02,3.03
		c0.87,0.46,1.71,0.93,2.55,1.39s1.69,0.93,2.55,1.39l0.13,0.07c3.26,1.8,6.64,3.66,9.87,5.51c3.31,1.6,6.56,3.23,9.71,4.8
		l0.14,0.07c1.6,0.8,3.25,1.62,4.75,2.32c0.97,0.48,1.93,0.88,2.86,1.27c0.65,0.27,1.29,0.54,1.91,0.82
		c3.19,1.42,6.23,2.7,9.16,3.94c2.45,1.08,4.91,1.99,7.28,2.88l1.32,0.49c2.69,1.01,5.16,1.91,7.62,2.8l0.22,0.08
		c0.71,0.35,1.54,0.71,2.34,1.05c0.42,0.18,0.86,0.33,1.31,0.48c0.42,0.14,0.85,0.28,1.28,0.46c1.71,0.57,3.56,1.26,5.35,1.93
		l0.11,0.04c0.92,0.29,1.85,0.61,2.77,0.92c0.93,0.32,1.86,0.64,2.77,0.92c0.47,0.18,0.91,0.32,1.35,0.47
		c0.43,0.14,0.86,0.29,1.37,0.47c0.37,0.09,0.71,0.19,1.05,0.29l0.11-0.31c0.42,0.08,1.07,0.23,1.96,0.49l4.06,1.13
		c6.37,1.78,6.37,1.78,6.73,1.78c0.24,0,0.93,0.15,6.33,1.32l4.59,0.99c0.67,0.15,1.38,0.31,2.13,0.47
		c0.96,0.21,1.98,0.43,3.08,0.69c2.39,0.56,4.53,0.98,6.51,1.28c1,0.19,2.03,0.36,3.08,0.54c1.5,0.25,3.05,0.51,4.7,0.85
		c1.39,0.23,2.79,0.46,4.3,0.7c0.5,0.08,0.98,0.17,1.47,0.25c0.97,0.18,1.98,0.37,3.07,0.44c1.29,0.15,2.63,0.32,3.98,0.49
		c1.81,0.23,3.67,0.47,5.51,0.67c3.27,0.47,6.75,0.93,10.24,1.05c2,0.13,4.02,0.3,6.06,0.46c5,0.4,10.17,0.82,15.29,0.82l10.8,0.35
		c1.83,0,3.63-0.03,5.4-0.06c1.71-0.03,3.39-0.06,5.05-0.06c7.47-0.25,13.64-0.47,19.47-0.82c1.05-0.08,2.1-0.16,3.13-0.2l4.48-0.3
		c2.82-0.24,5.78-0.51,8.32-0.77c4.77-0.49,8.63-0.96,11.06-1.28c3.27-0.64,6.79-1.28,10.41-1.94c8.52-1.55,17.33-3.16,24.84-5.09
		l0.02,0.07l0.49-0.12c6.29-1.51,25.44-6.1,44.2-12.77c8.1-2.73,17.2-6.25,27.06-10.45l2.82-1.24c2.75-1.21,5.35-2.35,7.63-3.41
		c2.86-1.37,5.16-2.52,6.85-3.37l-0.08-0.17c1.83-0.95,3.31-1.72,4.5-2.27c1.18-0.63,2.15-1.06,3.01-1.43l0.67-0.29
		c0.53-0.24,1.06-0.46,1.62-0.7c1.66-0.7,3.55-1.5,6.75-3.14l1.47-0.76l-0.93-0.03c0.57-0.46,1.64-1.2,3.21-2.12l1.47-0.94
		c1.86-1.19,3.78-2.42,5.17-3.21v0.25l0.66-0.39c2.18-1.29,5.58-3.53,9.18-5.9l1.97-1.3c2.2-1.51,4.53-3.13,6.83-4.75
		c1.75-1.13,3.39-2.31,4.98-3.45l0.63-0.45l-0.12,0.59l0.9-0.65c2.26-1.64,5.12-3.78,8.16-6.05c1.48-1.11,3-2.24,4.48-3.34
		c1.59-1.11,3.06-2.27,4.47-3.38c0.65-0.52,1.29-1.02,1.92-1.5c1.97-1.51,3.6-2.79,4.76-3.71l0.45-0.35
		c5.32-4.16,11.93-9.34,18.7-15.32c6-5.2,12.11-11.02,17.73-16.89c-0.09,0.99-0.17,1.75-0.24,2.24l-0.01,0.1l0.03,0.09
		c0.3,0.96,0.27,2.07,0.23,3.14c0,0.15-0.01,0.3-0.01,0.45l-0.14-0.28l0.13,2.14c0.05,0.79-0.1,3.33-0.27,6.02
		c-0.22,3.61-0.45,7.34-0.31,8.61l0.12,1.14c-0.04,0.11-0.09,0.21-0.15,0.33c-0.15,0.3-0.33,0.67-0.43,1.32l-0.1,0.59l0.59-0.1
		c0.17,0.06,0.41,0.67,0.5,1.22h-0.13l0.06,0.49c0.04,0.34,0.13,0.83,0.23,1.41c0.14,0.79,0.3,1.73,0.4,2.55l-0.48-0.16l0.21,0.78
		c0.25,0.9,0.18,2.53,0.13,3.61c-0.02,0.37-0.03,0.68-0.03,0.86c-0.06,0.51-0.15,1.08-0.24,1.7c-0.3,1.91-0.67,4.27-0.36,6.48
		l-1.21,1.81l0.32,0.64l0.19,0.05c0.53,0.13,12.41,3.11,16.11,0.08c0,0.16,0.01,0.32,0.03,0.49l0.12,0.86l0.62-0.61
		c0.27-0.27,0.41-0.58,0.5-0.92l0.2,0.3v-1.37l0.07-0.07l-0.06-0.1c0.02-0.25,0.11-0.51,0.2-0.79l0.06-0.17l-0.28-0.5l-0.2,0.01
		c-0.09-0.3-0.14-0.6-0.05-0.83l0.03-0.11c0.01-0.05,0.01-0.08,0.02-0.11c0.41-0.07,0.61-0.35,0.68-0.95
		c0.13-1.6,0.29-3.2,0.44-4.79c0.33-3.39,0.66-6.88,0.79-10.43l0.42,0.83l-0.14-2.15c-0.06-0.85-0.06-1.66-0.06-2.43
		c0-0.75,0-1.47-0.05-2.2c0.08-0.13,0.15-0.22,0.21-0.28l0.02,0.01l0.21-0.21l-0.31-0.31l0,0c0,0,0-0.01-0.01-0.01l0.38-0.16
		c-0.07-0.24-0.16-1.99-0.06-4c0-0.55,0.03-1.13,0.06-1.67c0.03-0.49,0.05-0.96,0.05-1.39c-0.11-1.12-0.11-1.69-0.11-1.7v-0.37
		l-0.68-0.11c0.03-0.23,0.09-0.3,0.13-0.32c0.46-0.21,0.6-0.55,0.54-1.32l-0.01-0.2l-0.16-0.12c-0.28-0.21-0.22-0.71-0.1-1.39
		c0.08-0.5,0.17-1.02,0-1.42c0.01-0.02,0.01-0.05,0.02-0.07c0.01-0.05,0.03-0.12,0.05-0.17l2.12,0.01l-2.06-0.83l0.16-1.87
		c0.13-1.52,0.46-5.57,0.69-9.64c0.06-0.53,0.09-1.07,0.12-1.6c0.03-0.51,0.06-1.02,0.11-1.55c0.06-0.81,0.09-1.58,0.12-2.34
		c0.03-0.77,0.06-1.53,0.12-2.31l0.08-2.36c0.08-2.45,0.15-4.38,0.15-5.54v-1.84l-0.46,0.92c0.02-0.19,0.04-0.39,0.06-0.58
		C743.54,449.62,743.65,448.55,744.13,447.64z M366.96,574.06c0.05,0.01,0.09,0.02,0.14,0.04c-0.03,0-0.05,0-0.08,0
		C367,574.08,366.98,574.07,366.96,574.06z M674.91,462.05L674.91,462.05c0.01,0,0.01,0.01,0.02,0.02
		C674.92,462.07,674.92,462.07,674.91,462.05L674.91,462.05z M674.96,462.29c-0.01,0.04-0.02,0.07-0.04,0.1l0.05-0.13
		C674.96,462.27,674.96,462.28,674.96,462.29z"/>
</g>
</svg>
